<svg version="1.1" id="Layer_1" xmlns="http://www.w3.org/2000/svg" xmlns:xlink="http://www.w3.org/1999/xlink" x="0px" y="0px"
	 width="100%" viewBox="0 0 256 256" enable-background="new 0 0 256 256" xml:space="preserve">
<path fill="#000000" opacity="1.000000" stroke="none" 
	d="
M220.647827,196.582855 
	C220.437012,183.627090 220.007523,171.161102 211.540939,159.755569 
	C212.408493,162.751846 213.042725,164.924911 213.666504,167.100983 
	C214.467300,169.894730 214.597076,172.628067 213.385452,175.396469 
	C209.185577,184.992691 203.938705,194.078781 200.070267,203.873093 
	C198.614288,207.559433 193.873337,206.359482 189.248062,204.357452 
	C194.573120,201.485916 197.014008,197.075943 199.478561,192.620605 
	C206.546890,179.842773 203.944839,167.142456 199.146347,154.563385 
	C197.316788,149.767273 194.271545,145.490997 192.542664,140.576324 
	C191.461761,137.503662 186.419662,135.684647 183.796661,137.201309 
	C181.209641,138.697159 178.860352,140.606415 176.263641,142.082550 
	C173.690414,143.545349 170.539261,143.810577 167.647842,146.104980 
	C172.609650,149.896729 177.467361,153.449066 183.854828,152.449142 
	C187.979263,151.803482 188.374344,147.703110 189.940796,144.213379 
	C190.339630,146.009369 190.918961,147.786743 191.106506,149.604523 
	C191.983582,158.105423 186.445328,162.926437 178.158798,160.918579 
	C173.542435,159.800018 169.469147,157.485611 165.743500,154.650665 
	C141.808975,136.438126 124.295853,113.448257 114.254463,84.966156 
	C113.031075,81.496063 112.572319,77.889046 112.588028,74.171448 
	C112.605865,69.949791 113.074242,66.044823 117.462250,64.108917 
	C121.557610,62.302124 128.748352,64.151131 131.908005,67.623070 
	C130.777740,68.626495 129.700470,67.646645 128.615295,67.529320 
	C124.051186,67.035835 121.651680,68.728058 121.062775,73.371475 
	C120.282730,79.521965 122.265701,85.195465 124.618538,90.747879 
	C125.302925,92.362968 126.631516,93.024185 128.271606,92.601006 
	C134.620834,90.962776 141.288788,90.572250 146.213654,84.941444 
	C151.563507,78.824738 157.009003,78.330231 164.120911,82.330582 
	C166.712723,83.788445 169.128418,85.642952 171.388885,87.589996 
	C177.098831,92.508247 183.063278,96.114883 190.782623,98.003822 
	C202.223633,100.803444 209.200211,109.597542 212.214203,120.892792 
	C214.049820,127.771873 215.097382,134.901108 215.985992,141.982346 
	C216.974030,149.855774 220.460678,156.548157 224.702209,162.978638 
	C226.515274,165.727371 227.886124,168.764008 227.126572,171.913223 
	C224.865784,181.286850 225.660950,190.795303 225.257660,200.257004 
	C224.948257,207.515778 221.404434,210.310928 215.611969,208.284393 
	C215.155243,208.124619 214.744461,207.833542 214.135040,207.509125 
	C216.532898,203.742996 221.454163,202.055267 220.647827,196.582855 
z"/>
<path fill="#000000" opacity="1.000000" stroke="none" 
	d="
M80.126587,83.423950 
	C79.425926,92.273682 82.636208,99.793793 86.092781,107.150620 
	C89.575592,114.563263 95.350739,115.640488 101.774414,110.321762 
	C104.592400,107.988518 107.127647,105.316887 109.857941,102.873390 
	C111.306541,101.576950 112.897736,100.439842 115.039223,98.744087 
	C123.290947,115.267273 133.525742,129.711624 146.198776,143.237701 
	C141.125183,144.869644 136.310516,143.768372 131.925613,145.868912 
	C131.915207,150.701553 133.003159,155.375183 134.077377,160.024124 
	C135.956039,168.154587 137.009476,176.297607 136.378708,184.696426 
	C135.968338,190.160980 136.251358,195.690872 136.442245,201.183899 
	C136.672745,207.817017 134.971573,209.705643 128.549438,208.038116 
	C125.596039,207.271271 122.593147,206.042236 119.509750,205.081787 
	C127.125099,194.084366 122.675117,183.411545 120.042023,172.443649 
	C117.475952,161.754974 114.925735,151.145950 110.795837,140.920044 
	C109.467674,137.631439 108.202415,136.233353 104.332535,136.680847 
	C98.350838,137.372559 92.428307,136.310867 86.743240,134.031540 
	C78.638901,130.782242 72.943832,125.484741 71.116501,116.649521 
	C69.178360,107.278488 63.347424,101.062378 55.090088,96.770943 
	C52.720085,95.539223 50.482090,94.178047 47.587746,94.566971 
	C45.575291,94.837395 44.194580,93.787384 43.304062,91.855934 
	C42.438011,89.977554 43.303734,88.766586 44.267014,87.321953 
	C46.848717,83.450165 50.450104,81.501282 54.933872,82.510765 
	C61.654018,84.023758 68.533028,81.267082 75.152031,83.601120 
	C76.881287,84.210907 78.159912,81.005394 80.126587,83.423950 
z"/>
</svg>